<svg xmlns="http://www.w3.org/2000/svg" width="1440" height="900" viewBox="0 0 1440 900" fill="none" role="img">
  <rect width="1440" height="900" fill="#e8ebe9"/>
  <defs>
    <linearGradient id="g23" x1="0" y1="0" x2="0" y2="1">
      <stop offset="0" stop-color="#f4f6f5"/>
      <stop offset="1" stop-color="#dfe5e2"/>
    </linearGradient>
  </defs>
  <rect width="1440" height="900" fill="url(#g23)"/>
  <rect y="522.0" width="1440" height="378.0" fill="#052424" opacity="0.07"/>
  <rect x="491.4" y="488.3" width="25.2" height="33.8" rx="2" fill="#052424" opacity="0.13"/>
  <rect x="642.9" y="465.5" width="42.2" height="56.5" rx="2" fill="#052424" opacity="0.16"/>
  <rect x="794.4" y="442.8" width="59.1" height="79.2" rx="2" fill="#052424" opacity="0.19"/>
  <rect x="968.9" y="481.5" width="30.2" height="40.5" rx="2" fill="#052424" opacity="0.13"/>
  <rect x="1120.4" y="458.8" width="47.2" height="63.2" rx="2" fill="#052424" opacity="0.16"/>
  <rect x="1271.9" y="436.1" width="64.1" height="85.9" rx="2" fill="#052424" opacity="0.19"/>
  <rect x="6.4" y="474.8" width="35.3" height="47.2" rx="2" fill="#052424" opacity="0.14"/>
  <rect x="157.9" y="452.0" width="52.2" height="70.0" rx="2" fill="#052424" opacity="0.17"/>
  <rect x="309.4" y="429.3" width="69.2" height="92.7" rx="2" fill="#052424" opacity="0.20"/>
  <rect x="0" y="654.3" width="1440" height="3" fill="#abff02" opacity="0.70"/>
  <circle cx="1152.0" cy="414.0" r="31.5" fill="#abff02" opacity="0.55"/>
</svg>
