<svg xmlns="http://www.w3.org/2000/svg" width="1440" height="900" viewBox="0 0 1440 900" fill="none" role="img">
  <rect width="1440" height="900" fill="#05100e"/>
  <defs>
    <linearGradient id="sky" x1="0" y1="0" x2="0" y2="1">
      <stop offset="0" stop-color="#123028"/>
      <stop offset="1" stop-color="#05100e"/>
    </linearGradient>
  </defs>
  <rect width="1440" height="900" fill="url(#sky)"/>
  <circle cx="1037" cy="270" r="90" fill="#abff02" opacity="0.12"/>
  <path d="M0 405 Q 360 348 720 405 T 1440 376 V 900 H 0 Z" fill="#0a1a16" opacity="0.50"/>
  <path d="M0 486 Q 360 438 720 486 T 1440 462 V 900 H 0 Z" fill="#0a1a16" opacity="0.42"/>
  <path d="M0 567 Q 360 511 720 567 T 1440 539 V 900 H 0 Z" fill="#0a1a16" opacity="0.34"/>
  <path d="M0 648 Q 360 591 720 648 T 1440 620 V 900 H 0 Z" fill="#0a1a16" opacity="0.26"/>
  <path d="M0 729 Q 360 683 720 729 T 1440 706 V 900 H 0 Z" fill="#0a1a16" opacity="0.18"/>
</svg>
